# xmcd
#
# Track frame offsets: 
#        150
#        5299
#        17201
#        30120
#        43998
#        58493
#        72893
#        84918
#        95905
#        107037
#        119655
#
# Disc length: 1772 seconds
#
# Revision: 0
# Processed by: cddbd v1.5.2PL0 Copyright (c) Steve Scherf et al.
# Submitted via: ExactAudioCopy v0.90b4
#
DISCID=9106ea0b
DTITLE=Joe Mullins and The Radio Ramblers - Tuned In
DYEAR=1900
DGENRE=Bluegrass
TTITLE0=Radio Intro
TTITLE1=Each Minute Seems A Million Years
TTITLE2=Poet With Wings
TTITLE3=Bending The Strings
TTITLE4=I Owe It All To Thee
TTITLE5=My Blue Eyed Darlin
TTITLE6=East Tennessee Blues
TTITLE7=When I've Traveled My Last Mile
TTITLE8=Brand New Man
TTITLE9=Baby Girl
TTITLE10=Deeper Than The Stain
EXTD=
EXTT0=
EXTT1=
EXTT2=
EXTT3=
EXTT4=
EXTT5=
EXTT6=
EXTT7=
EXTT8=
EXTT9=
EXTT10=
PLAYORDER=
